<?xml version="1.0" encoding="utf-8"?>
<!-- Generator: Adobe Illustrator 16.0.3, SVG Export Plug-In . SVG Version: 6.00 Build 0)  -->
<!DOCTYPE svg PUBLIC "-//W3C//DTD SVG 1.1//EN" "http://www.w3.org/Graphics/SVG/1.1/DTD/svg11.dtd">
<svg version="1.1" id="レイヤー_1" xmlns="http://www.w3.org/2000/svg" xmlns:xlink="http://www.w3.org/1999/xlink" x="0px"
	 y="0px" width="425.197px" height="94.399px" viewBox="0 0 425.197 94.399" enable-background="new 0 0 425.197 94.399"
	 xml:space="preserve">
<g>
	<g>
		<g>
			<g>
				<g>
					<g>
						<path d="M27.944,72.588c-9.091,0-13.301-6.605-13.301-15.689c0-11.87,7.372-28.039,19.229-28.039
							c10.145,0,12.916,8.231,12.916,15.499c0,12.348-7.27,28.229-18.756,28.229H27.944z M55.784,83.589
							c-5.354-1.048-10.713-2.299-14.637-3.348v-0.293c3.924-1.623,7.271-4.013,9.947-6.887
							c6.313-6.796,10.241-17.696,10.241-28.798c0-14.346-8.516-26.888-25.931-26.888c-9.379,0-17.696,3.541-23.828,9.566
							C4.308,34.218,0.002,45.413,0.002,56.899c0,16.253,9.862,26.014,22.384,26.882c0.574,0.09,1.533,0.281,4.599,1.623
							c5.738,2.785,15.308,6.415,24.014,8.996L55.784,83.589z"/>
						<path d="M113.956,36.127l-5.929,31.58c-1.148,5.93-1.916,11.001-2.587,15.206H93.29l0.863-7.552L93.96,75.26
							c-4.785,6.131-10.427,8.712-16.073,8.712c-7.563,0-12.061-4.216-12.061-13.108c0-2.48,0.293-5.365,0.959-8.611l4.975-26.125
							h13.78l-4.785,25.077c-0.377,2.108-0.671,4.497-0.671,6.209c0,2.964,1.24,5.366,4.695,5.366
							c4.683,0,9.564-5.646,11.283-14.934l4.119-21.718H113.956z"/>
						<path d="M148.491,56.707c-2.097,11.475-7.359,16.164-11.479,16.164c-3.826,0-5.641-3.156-5.641-7.743
							c0-8.713,6.504-19.619,15.407-19.619c1.432,0,2.581,0.187,3.63,0.39L148.491,56.707z M159.314,82.913
							c-0.193-5.839,0.759-15.013,1.909-21.044l4.683-24.497c-3.818-1.245-9.76-2.293-15.401-2.293
							c-22.961,0-33.488,16.838-33.488,32.628c0,9.762,5.743,16.266,14.163,16.266c5.455,0,11.479-2.581,15.881-10.336h0.19
							c-0.19,3.348-0.473,6.604-0.575,9.276H159.314z"/>
						<path d="M202.168,81.481c-2.968,1.432-7.745,2.492-13.303,2.492c-11.576,0-19.702-7.079-19.702-19.24
							c0-16.638,12.726-29.653,30.518-29.653c4.019,0,7.467,0.764,9.564,1.625l-3.438,10.534c-1.624-0.676-3.539-1.16-6.312-1.16
							c-9.763,0-15.883,8.329-15.883,17.133c0,6.502,4.111,9.759,9.182,9.759c4.017,0,6.887-0.958,9.282-1.916L202.168,81.481z"/>
						<path d="M241.02,56.707c-2.107,11.475-7.372,16.164-11.48,16.164c-3.826,0-5.652-3.156-5.652-7.743
							c0-8.713,6.509-19.619,15.403-19.619c1.437,0,2.591,0.187,3.645,0.39L241.02,56.707z M251.829,82.913
							c-0.191-5.839,0.768-15.013,1.918-21.044l4.687-24.497c-3.819-1.245-9.76-2.293-15.401-2.293
							c-22.965,0-33.494,16.838-33.494,32.628c0,9.762,5.743,16.266,14.164,16.266c5.45,0,11.479-2.581,15.875-10.336h0.197
							c-0.197,3.348-0.483,6.604-0.575,9.276H251.829z"/>
						<path d="M260.249,82.913l5.353-27.841c1.247-7.078,1.917-14.928,2.396-18.944h11.865c-0.192,3.156-0.476,6.318-0.856,9.669
							h0.381c3.254-6.316,8.421-10.718,14.828-10.718c0.953,0,1.814,0.1,2.587,0.1l-2.682,13.487
							c-0.575-0.096-1.343-0.096-2.108-0.096c-8.702,0-12.917,7.749-14.643,16.93l-3.251,17.414H260.249z"/>
						<path d="M326.84,49.143c0,4.307-5.365,5.75-16.072,5.648c0.958-4.305,4.593-9.671,11.002-9.671c3.153,0,5.07,1.634,5.07,3.934
							V49.143z M332.96,70.289c-3.73,1.815-8.037,2.964-13.108,2.964c-4.018,0-7.174-1.24-8.989-3.633
							c-0.959-1.336-1.438-3.445-1.438-4.786c18.758,0.484,30.332-3.827,30.332-15.691c0-8.71-6.797-14.064-16.265-14.064
							c-16.939,0-27.271,14.832-27.271,29.089c0,12.241,6.893,19.804,20.282,19.804c5.169,0,11.959-0.959,17.415-3.731
							L332.96,70.289z"/>
						<path d="M373.814,49.143c0,4.307-5.355,5.75-16.067,5.648c0.958-4.305,4.588-9.671,11.001-9.671
							c3.157,0,5.066,1.634,5.066,3.934V49.143z M379.94,70.289c-3.726,1.815-8.035,2.964-13.109,2.964
							c-4.024,0-7.179-1.24-8.993-3.633c-0.959-1.336-1.434-3.445-1.434-4.786c18.752,0.484,30.334-3.827,30.334-15.691
							c0-8.71-6.798-14.064-16.271-14.064c-16.936,0-27.27,14.832-27.27,29.089c0,12.241,6.896,19.804,20.282,19.804
							c5.167,0,11.964-0.959,17.418-3.731L379.94,70.289z"/>
						<path d="M388.647,82.913l5.355-27.841c1.244-7.078,1.915-14.928,2.396-18.944h11.856c-0.181,3.156-0.475,6.318-0.856,9.669
							h0.382c3.26-6.316,8.421-10.718,14.834-10.718c0.959,0,1.814,0.1,2.581,0.1l-2.682,13.487
							c-0.568-0.096-1.336-0.096-2.103-0.096c-8.707,0-12.912,7.749-14.641,16.93l-3.248,17.414H388.647z"/>
					</g>
				</g>
			</g>
		</g>
	</g>
	<g>
		<path stroke="#000000" stroke-width="0.2774" stroke-miterlimit="10" d="M139.656,6.922c0,0.126-0.067,0.189-0.202,0.189
			l-3.206-0.047h-14.104l-3.205,0.047c-0.127,0-0.19-0.063-0.19-0.189V5.948c0-0.127,0.063-0.19,0.19-0.19l3.205,0.047h0.855V4.084
			c0-1.282-0.063-2.165-0.19-2.648c0.602,0.023,1.136,0.071,1.603,0.143c0.206,0.032,0.31,0.107,0.31,0.226
			c0,0.135-0.048,0.289-0.143,0.463c-0.096,0.174-0.143,0.724-0.143,1.65v1.888h4.107V2.648c0-1.29-0.056-2.173-0.166-2.648
			c0.578,0.023,1.108,0.071,1.591,0.143c0.198,0.031,0.297,0.099,0.297,0.202c0,0.135-0.048,0.289-0.143,0.463
			c-0.079,0.159-0.118,0.693-0.118,1.603h4.107l2.969-0.048c0.11,0,0.166,0.064,0.166,0.19v0.926c0,0.127-0.056,0.19-0.166,0.19
			l-2.969-0.048h-4.107v2.185h6.244l3.206-0.047c0.135,0,0.202,0.063,0.202,0.19V6.922z M138.492,8.845
			c0,0.08-0.052,0.233-0.154,0.463c-0.079,0.206-0.118,0.799-0.118,1.78v6.898l0.047,3.87c0,0.119-0.063,0.179-0.189,0.179h-1.104
			c-0.127,0-0.189-0.06-0.189-0.179v-1.211h-15.28v1.116c0,0.151-0.063,0.226-0.19,0.226h-1.104c-0.127,0-0.19-0.075-0.19-0.226
			l0.047-3.775v-6.969c0-1.211-0.055-2.074-0.166-2.588c0.586,0.024,1.112,0.075,1.579,0.154c0.175,0.023,0.262,0.087,0.262,0.19
			c0,0.079-0.048,0.233-0.143,0.463c-0.063,0.198-0.095,0.792-0.095,1.781v8.334h15.28v-8.264c0-1.203-0.048-2.062-0.143-2.576
			c0.594,0.023,1.119,0.071,1.579,0.142C138.401,8.679,138.492,8.742,138.492,8.845z M136.177,16.847
			c-0.23,0.183-0.439,0.423-0.63,0.725c-0.135,0.229-0.237,0.344-0.309,0.344c-0.023,0-0.146-0.047-0.368-0.142
			c-2.16-1.013-3.914-2.335-5.259-3.965c0.016,0.91,0.043,1.979,0.082,3.205c0.032,0.935,0.048,1.433,0.048,1.496
			c0,0.127-0.067,0.19-0.202,0.19h-0.997c-0.127,0-0.189-0.063-0.189-0.19c0-0.016,0.02-0.625,0.059-1.828
			c0.032-1.053,0.052-1.995,0.06-2.826c-1.203,1.646-2.856,3.012-4.963,4.096c-0.166,0.095-0.284,0.143-0.356,0.143
			c-0.086,0-0.201-0.099-0.344-0.297c-0.198-0.277-0.399-0.479-0.605-0.605c2.375-1.068,4.199-2.391,5.474-3.966h-1.484
			l-3.218,0.047c-0.126,0-0.189-0.063-0.189-0.189v-0.808c0-0.126,0.063-0.19,0.189-0.19l3.218,0.048h2.231v-1.77
			c0-0.91-0.055-1.737-0.166-2.481c0.38,0.016,0.844,0.063,1.39,0.143c0.19,0.031,0.285,0.099,0.285,0.201
			c0,0.072-0.021,0.163-0.06,0.273c-0.048,0.135-0.075,0.218-0.083,0.25c-0.063,0.246-0.096,0.784-0.096,1.615v1.77h2.506
			l3.229-0.048c0.11,0,0.166,0.063,0.166,0.19v0.808c0,0.126-0.056,0.189-0.166,0.189l-3.229-0.047h-1.876
			C131.89,14.817,133.842,16.024,136.177,16.847z M126.631,10.673c0.023,0.056,0.035,0.095,0.035,0.119
			c0,0.064-0.079,0.139-0.237,0.226l-0.486,0.261c-0.135,0.071-0.226,0.107-0.273,0.107c-0.055,0-0.111-0.052-0.166-0.154
			c-0.356-0.752-0.815-1.465-1.377-2.137c-0.048-0.056-0.072-0.099-0.072-0.131c0-0.056,0.08-0.126,0.238-0.214l0.51-0.237
			c0.104-0.063,0.175-0.095,0.214-0.095c0.04,0,0.1,0.047,0.179,0.143C125.693,9.13,126.172,9.835,126.631,10.673z M134.408,9
			c0,0.071-0.063,0.158-0.189,0.261c-0.127,0.095-0.242,0.226-0.345,0.392c-0.419,0.586-0.835,1.112-1.247,1.58
			c-0.174,0.182-0.284,0.273-0.332,0.273s-0.17-0.056-0.368-0.167c-0.118-0.071-0.305-0.154-0.558-0.25
			c0.594-0.712,1.064-1.361,1.412-1.947c0.167-0.309,0.27-0.585,0.31-0.831l1.092,0.439C134.333,8.822,134.408,8.904,134.408,9z"/>
		<path stroke="#000000" stroke-width="0.2774" stroke-miterlimit="10" d="M151.065,12.597c-0.259,0.349-0.448,0.688-0.558,1.021
			c-0.078,0.19-0.154,0.285-0.226,0.285c-0.079,0-0.166-0.071-0.263-0.213c-1.042-1.441-1.879-2.87-2.504-4.287
			c0.007,2.834,0.043,5.834,0.107,9c0.016,0.744,0.038,1.627,0.069,2.648c0.01,0.491,0.014,0.76,0.014,0.807
			c0,0.126-0.064,0.19-0.19,0.19h-1.224c-0.125,0-0.188-0.064-0.188-0.19c0-0.008,0.017-0.665,0.048-1.971
			c0.103-3.815,0.156-7.317,0.165-10.507c-0.901,2.857-2.093,5.359-3.573,7.503c-0.103,0.159-0.189,0.237-0.261,0.237
			c-0.063,0-0.147-0.09-0.25-0.273c-0.182-0.396-0.407-0.728-0.676-0.998c1.709-1.971,3.126-4.523,4.25-7.657h-0.678l-2.896,0.047
			c-0.11,0-0.166-0.063-0.166-0.19V7.1c0-0.126,0.056-0.189,0.166-0.189l2.896,0.047h1.069v-3.55
			c-0.823,0.213-1.683,0.408-2.576,0.582c-0.166,0.023-0.273,0.035-0.32,0.035c-0.128,0-0.253-0.126-0.381-0.38
			c-0.189-0.316-0.387-0.565-0.593-0.748c2.572-0.396,4.626-0.958,6.161-1.686c0.483-0.238,0.846-0.471,1.092-0.701
			c0.437,0.308,0.783,0.594,1.045,0.855c0.145,0.142,0.214,0.277,0.214,0.403c0,0.127-0.13,0.202-0.393,0.226
			c-0.229,0.016-0.577,0.119-1.043,0.309c-0.667,0.285-1.255,0.515-1.77,0.688v3.966h0.319l2.886-0.047
			c0.137,0,0.203,0.063,0.203,0.189v0.95c0,0.127-0.066,0.19-0.203,0.19l-2.886-0.047h-0.129
			C148.735,9.878,149.814,11.346,151.065,12.597z M163.485,14.294c0.009,0.04,0.011,0.068,0.011,0.083
			c0,0.055-0.058,0.103-0.177,0.142l-3.063,0.582v2.505l0.047,4.203c0,0.126-0.063,0.19-0.189,0.19h-1.175
			c-0.128,0-0.19-0.063-0.19-0.19l0.047-4.179v-2.244l-4.784,0.926c-0.949,0.183-1.768,0.353-2.457,0.511
			c-0.459,0.095-0.696,0.146-0.714,0.154c-0.038,0.008-0.069,0.012-0.094,0.012c-0.063,0-0.104-0.063-0.12-0.19l-0.226-1.044
			c0-0.032,0-0.06,0-0.083c0-0.071,0.061-0.115,0.179-0.13c1.006-0.15,2.073-0.341,3.205-0.57l5.011-0.986V3.716
			c0-1.48-0.054-2.588-0.166-3.325c0.689,0.024,1.216,0.064,1.58,0.119c0.213,0.031,0.32,0.103,0.32,0.214
			c0,0.079-0.041,0.226-0.119,0.439c-0.103,0.292-0.154,1.128-0.154,2.505v10.021c1.123-0.222,2.065-0.439,2.826-0.653
			c0.031-0.008,0.052-0.013,0.059-0.013c0.087,0,0.139,0.068,0.154,0.202L163.485,14.294z M156.585,10.697
			c0.065,0.071,0.097,0.126,0.097,0.167c0,0.04-0.056,0.115-0.166,0.225l-0.546,0.582c-0.137,0.143-0.226,0.214-0.272,0.214
			c-0.034,0-0.076-0.032-0.133-0.095c-1.163-1.298-2.291-2.323-3.383-3.075c-0.072-0.047-0.107-0.095-0.107-0.143
			c0-0.048,0.061-0.131,0.179-0.25l0.51-0.487c0.095-0.095,0.166-0.143,0.215-0.143c0.032,0,0.083,0.024,0.155,0.072
			C154.406,8.604,155.558,9.582,156.585,10.697z M157.167,5.307c0.064,0.063,0.097,0.111,0.097,0.142
			c0,0.048-0.048,0.119-0.144,0.214l-0.558,0.594c-0.158,0.15-0.25,0.226-0.272,0.226c-0.031,0-0.072-0.036-0.119-0.107
			c-0.973-1.179-2.085-2.192-3.336-3.04c-0.063-0.047-0.097-0.087-0.097-0.119c0-0.047,0.065-0.138,0.19-0.273l0.511-0.51
			c0.096-0.095,0.163-0.143,0.203-0.143c0.031,0,0.078,0.023,0.141,0.071C155.043,3.194,156.171,4.175,157.167,5.307z"/>
		<path stroke="#000000" stroke-width="0.2774" stroke-miterlimit="10" d="M170.596,6.661c0,0.095-0.075,0.194-0.226,0.297
			c-0.158,0.087-0.345,0.329-0.559,0.724c-0.324,0.602-0.704,1.219-1.139,1.852v9.118l0.047,3.182c0,0.126-0.063,0.189-0.19,0.189
			h-1.104c-0.127,0-0.189-0.063-0.189-0.189l0.047-3.182v-4.31c0-0.159,0.023-1.211,0.072-3.158
			c-0.634,0.736-1.29,1.385-1.972,1.947c-0.165,0.143-0.28,0.214-0.344,0.214c-0.071,0-0.143-0.091-0.213-0.273
			c-0.144-0.316-0.321-0.598-0.535-0.843c1.844-1.496,3.312-3.296,4.404-5.402c0.197-0.372,0.352-0.76,0.463-1.164
			c0.451,0.214,0.839,0.439,1.163,0.677C170.504,6.475,170.596,6.582,170.596,6.661z M170.465,1.235
			c0,0.095-0.075,0.186-0.225,0.273c-0.23,0.135-0.44,0.337-0.63,0.606c-1.133,1.567-2.386,2.92-3.764,4.06
			c-0.157,0.126-0.272,0.19-0.343,0.19c-0.08,0-0.175-0.107-0.285-0.321c-0.183-0.332-0.396-0.605-0.642-0.819
			c1.622-1.14,2.896-2.442,3.823-3.906c0.252-0.427,0.43-0.795,0.532-1.104c0.507,0.229,0.927,0.459,1.259,0.688
			C170.375,1.029,170.465,1.14,170.465,1.235z M181.068,18.7c0,0.126-0.072,0.189-0.214,0.189l-3.016-0.047h-0.368v0.237
			l0.047,2.612c0,0.126-0.063,0.19-0.188,0.19h-0.975c-0.135,0-0.201-0.063-0.201-0.19l0.047-2.612v-0.237h-3.063l-3.017,0.047
			c-0.126,0-0.189-0.063-0.189-0.189v-0.855c0-0.126,0.063-0.19,0.189-0.19l1.853,0.048v-2.113l-1.092,0.024
			c-0.135,0-0.202-0.063-0.202-0.19v-0.831c0-0.126,0.067-0.19,0.202-0.19l2.789,0.048h2.529v-1.662h-1.864l-2.457,0.047
			c-0.126,0-0.19-0.063-0.19-0.19l0.048-1.365v-1.021l-0.048-1.365c0-0.143,0.064-0.213,0.19-0.213l2.457,0.047h2.648l2.481-0.047
			c0.127,0,0.189,0.071,0.189,0.213l-0.047,1.365v1.021l0.047,1.365c0,0.127-0.063,0.19-0.189,0.19
			c-0.017,0-0.218-0.004-0.606-0.012c-0.402-0.016-0.866-0.028-1.389-0.036v1.662l2.719-0.048c0.135,0,0.202,0.064,0.202,0.19v0.831
			c0,0.127-0.067,0.19-0.202,0.19l-2.719-0.048v2.137h0.368l3.016-0.048c0.142,0,0.214,0.064,0.214,0.19V18.7z M180.831,7.171
			c0,0.111-0.067,0.166-0.201,0.166l-2.839-0.024h-4.084l-2.825,0.024c-0.127,0-0.19-0.055-0.19-0.166V6.316
			c0-0.126,0.063-0.189,0.19-0.189l2.137,0.047c0.269-0.625,0.578-1.444,0.926-2.458l-2.184,0.047c-0.136,0-0.203-0.063-0.203-0.19
			V2.719c0-0.126,0.067-0.19,0.203-0.19l2.361,0.047h0.214l0.238-0.831c0.15-0.578,0.232-1.057,0.249-1.437
			c0.625,0.11,1.085,0.202,1.377,0.273c0.197,0.055,0.297,0.143,0.297,0.261c0,0.103-0.063,0.217-0.189,0.344
			c-0.119,0.119-0.227,0.329-0.321,0.629l-0.237,0.76h0.867l2.41-0.047c0.134,0,0.201,0.063,0.201,0.19l-0.047,1.437v2.019
			l1.449-0.047c0.134,0,0.201,0.063,0.201,0.189V7.171z M178.326,11.742V9.818h-5.308v1.923H178.326z M176.2,17.702v-2.137h-2.933
			v2.137H176.2z M177.885,6.174V3.716h-2.528c-0.293,0.871-0.602,1.69-0.927,2.458H177.885z M186.897,8.465
			c0,0.126-0.063,0.189-0.189,0.189l-2.043-0.047v7.29l0.048,3.609c0,0.855-0.21,1.429-0.63,1.721
			c-0.379,0.246-1.321,0.368-2.825,0.368c-0.254,0-0.403-0.023-0.45-0.071c-0.041-0.048-0.084-0.187-0.131-0.416
			c-0.08-0.403-0.202-0.744-0.368-1.021c0.705,0.08,1.408,0.119,2.113,0.119c0.569,0,0.854-0.3,0.854-0.902V8.607h-0.213
			l-2.019,0.047c-0.135,0-0.202-0.063-0.202-0.189V7.468c0-0.126,0.067-0.189,0.202-0.189l2.019,0.047h1.602l2.043-0.047
			c0.127,0,0.189,0.063,0.189,0.189V8.465z M186.469,3.016c0,0.126-0.067,0.189-0.201,0.189l-1.864-0.047h-1.39l-1.875,0.047
			c-0.126,0-0.19-0.063-0.19-0.189V1.995c0-0.126,0.064-0.19,0.19-0.19l1.875,0.048h1.39l1.864-0.048
			c0.134,0,0.201,0.063,0.201,0.19V3.016z"/>
		<path stroke="#000000" stroke-width="0.2774" stroke-miterlimit="10" d="M209.682,20.397c0,0.126-0.063,0.189-0.19,0.189
			l-3.205-0.047h-14.176l-3.218,0.047c-0.127,0-0.19-0.063-0.19-0.189V19.27c0-0.127,0.063-0.19,0.19-0.19l3.218,0.047h6.292v-5.462
			h-2.991l-3.408,0.048c-0.127,0-0.19-0.063-0.19-0.19v-1.104c0-0.126,0.063-0.19,0.19-0.19l3.408,0.048h2.991V7.254h-5.735
			c-0.711,1.464-1.547,2.766-2.505,3.906c-0.126,0.143-0.217,0.214-0.272,0.214s-0.179-0.079-0.368-0.237
			c-0.292-0.245-0.582-0.416-0.866-0.511c1.788-2.034,3.142-4.503,4.061-7.409c0.173-0.514,0.261-0.977,0.261-1.389
			c0.609,0.127,1.104,0.265,1.484,0.416c0.197,0.063,0.297,0.15,0.297,0.261c0,0.103-0.064,0.217-0.19,0.344
			c-0.135,0.127-0.266,0.384-0.392,0.772c-0.577,1.488-0.871,2.244-0.879,2.268h5.105V3.871c0-1.496-0.063-2.608-0.189-3.336
			c0.562,0.023,1.127,0.067,1.697,0.13c0.197,0.024,0.297,0.095,0.297,0.214c0,0.047-0.017,0.115-0.048,0.202
			c-0.039,0.111-0.063,0.19-0.07,0.238c-0.103,0.356-0.154,1.191-0.154,2.505v2.065h4.499l3.408-0.047
			c0.126,0,0.189,0.063,0.189,0.189v1.08c0,0.127-0.063,0.19-0.189,0.19l-3.408-0.047h-4.499v5.022h3.383l3.396-0.048
			c0.134,0,0.201,0.064,0.201,0.19v1.104c0,0.126-0.067,0.19-0.201,0.19l-3.396-0.048h-3.383v5.462h6.352l3.205-0.047
			c0.127,0,0.19,0.063,0.19,0.19V20.397z"/>
		<path stroke="#000000" stroke-width="0.2774" stroke-miterlimit="10" d="M233.013,9.854c0,0.126-0.064,0.189-0.19,0.189
			l-3.241-0.047h-6.411v9.308h4.928l3.383-0.047c0.127,0,0.19,0.064,0.19,0.19v1.104c0,0.126-0.063,0.189-0.19,0.189l-3.383-0.047
			h-11.125l-3.384,0.047c-0.136,0-0.202-0.063-0.202-0.189v-1.104c0-0.126,0.066-0.19,0.202-0.19l3.384,0.047h4.618V9.997h-6.055
			l-3.218,0.047c-0.127,0-0.19-0.063-0.19-0.189V8.727c0-0.126,0.063-0.19,0.19-0.19l3.218,0.048h6.055V3.716
			c0-1.417-0.06-2.438-0.178-3.063c0.736,0.032,1.321,0.083,1.757,0.154c0.183,0.024,0.272,0.095,0.272,0.214
			c0,0.087-0.043,0.226-0.131,0.416c-0.094,0.229-0.142,0.958-0.142,2.185v4.963h6.411l3.241-0.048c0.126,0,0.19,0.064,0.19,0.19
			V9.854z"/>
		<path stroke="#000000" stroke-width="0.2774" stroke-miterlimit="10" d="M256.675,18.747c-0.355,0.277-0.641,0.594-0.854,0.95
			c-0.143,0.206-0.248,0.309-0.32,0.309c-0.023,0-0.134-0.055-0.332-0.167c-4.274-2.612-7.183-6.387-8.728-11.326
			c0.111,6.166,0.167,9.87,0.167,11.113c0,0.91-0.285,1.524-0.854,1.84c-0.483,0.245-1.465,0.376-2.945,0.392
			c-0.237,0-0.379-0.023-0.427-0.071c-0.039-0.048-0.091-0.187-0.154-0.416c-0.127-0.443-0.313-0.815-0.558-1.116
			c0.768,0.063,1.353,0.095,1.757,0.095c0.689,0,1.136-0.083,1.341-0.25c0.206-0.158,0.31-0.462,0.31-0.914V6.399h-6.126
			l-3.218,0.047c-0.127,0-0.19-0.063-0.19-0.19V5.176c0-0.126,0.063-0.189,0.19-0.189l3.218,0.047h6.126V3.182
			c0-1.417-0.06-2.387-0.178-2.909c0.609,0.024,1.15,0.071,1.626,0.143c0.182,0.023,0.273,0.087,0.273,0.19
			c0,0.15-0.04,0.32-0.119,0.511c-0.079,0.246-0.118,0.926-0.118,2.042v1.875h6.244l3.229-0.047c0.135,0,0.202,0.063,0.202,0.189
			v1.081c0,0.127-0.067,0.19-0.202,0.19l-3.229-0.047h-6.055c0.609,2.026,1.421,3.858,2.435,5.497
			c1.187-1.005,2.231-2.086,3.134-3.242c0.27-0.308,0.486-0.68,0.653-1.116c0.475,0.261,0.886,0.554,1.234,0.879
			c0.135,0.11,0.202,0.225,0.202,0.344c0,0.087-0.092,0.19-0.273,0.309c-0.301,0.166-0.673,0.499-1.116,0.997
			c-0.919,1.013-1.954,1.995-3.11,2.944C251.642,15.363,253.897,17.274,256.675,18.747z M243.758,14.224
			c0.04,0.182,0.06,0.301,0.06,0.356c0,0.11-0.114,0.253-0.344,0.427c-1.702,1.203-3.57,2.347-5.604,3.431
			c-0.443,0.229-0.724,0.408-0.843,0.534c-0.135,0.127-0.241,0.19-0.32,0.19c-0.088,0-0.183-0.079-0.286-0.238
			c-0.269-0.467-0.489-0.906-0.664-1.318c0.554-0.174,1.147-0.419,1.781-0.736c2.065-1.005,4.107-2.22,6.126-3.645
			C243.664,13.59,243.696,13.922,243.758,14.224z M242.061,11.113c0.047,0.063,0.07,0.11,0.07,0.142
			c0,0.055-0.047,0.131-0.142,0.225l-0.642,0.606c-0.157,0.15-0.257,0.226-0.296,0.226c-0.041,0-0.075-0.031-0.107-0.095
			c-0.815-1.298-1.805-2.41-2.968-3.336c-0.071-0.063-0.107-0.111-0.107-0.143c0-0.04,0.075-0.123,0.227-0.25l0.533-0.51
			c0.111-0.095,0.19-0.143,0.237-0.143c0.032,0,0.076,0.016,0.131,0.047C240.154,8.778,241.173,9.854,242.061,11.113z
			 M253.578,3.135c0.047,0.04,0.071,0.079,0.071,0.118c0,0.071-0.079,0.17-0.238,0.297l-0.462,0.415
			c-0.167,0.143-0.277,0.214-0.334,0.214c-0.039,0-0.09-0.032-0.154-0.095c-0.711-0.871-1.666-1.682-2.86-2.434
			c-0.08-0.055-0.119-0.103-0.119-0.143c0-0.048,0.064-0.13,0.19-0.249l0.511-0.427c0.087-0.08,0.149-0.119,0.189-0.119
			c0.031,0,0.088,0.02,0.166,0.059C251.638,1.413,252.651,2.2,253.578,3.135z"/>
		<path stroke="#000000" stroke-width="0.2774" stroke-miterlimit="10" d="M279.91,20.136c-0.348,0.269-0.629,0.597-0.842,0.985
			c-0.144,0.23-0.25,0.345-0.321,0.345c-0.088,0-0.21-0.055-0.368-0.166c-4.972-3.174-7.986-7.639-9.047-13.393
			c-0.997,5.984-4.084,10.44-9.262,13.369c-0.197,0.11-0.319,0.166-0.367,0.166c-0.056,0-0.166-0.123-0.333-0.368
			c-0.253-0.34-0.554-0.629-0.901-0.867c3.403-1.638,5.963-4.1,7.681-7.384c1.441-2.747,2.137-5.782,2.09-9.106
			c-0.023-1.298-0.079-2.26-0.166-2.885c0.648,0.023,1.255,0.086,1.816,0.189c0.229,0.055,0.345,0.154,0.345,0.297
			c0,0.095-0.048,0.253-0.144,0.475c-0.142,0.325-0.213,0.779-0.213,1.365c0,0.57-0.012,0.993-0.035,1.271
			c0.562,3.744,1.678,6.902,3.348,9.474C274.835,16.452,277.076,18.529,279.91,20.136z"/>
		<path stroke="#000000" stroke-width="0.2774" stroke-miterlimit="10" d="M290.551,4.963c-0.229,2.185-0.664,4.278-1.306,6.281
			c-0.546,1.733-1.18,3.182-1.899,4.345c-0.981,1.67-2.173,2.505-3.574,2.505c-1.037,0-1.899-0.542-2.588-1.627
			c-0.641-1.021-0.962-2.319-0.962-3.894c0-1.211,0.277-2.402,0.831-3.574c0.499-1.045,1.164-1.955,1.995-2.73
			c1.923-1.797,4.354-2.695,7.289-2.695c2.873,0,5.098,0.819,6.673,2.458c1.337,1.394,2.007,3.186,2.007,5.378
			c0,2.185-0.717,4.021-2.149,5.509c-1.321,1.377-3.182,2.367-5.58,2.968c-0.087,0.024-0.159,0.036-0.214,0.036
			c-0.165,0-0.305-0.099-0.415-0.297c-0.214-0.348-0.53-0.649-0.95-0.902c2.604-0.514,4.556-1.48,5.854-2.897
			c1.155-1.267,1.732-2.837,1.732-4.713c0-1.908-0.688-3.455-2.065-4.643c-1.171-1.004-2.576-1.507-4.215-1.507H290.551z
			 M288.854,5.058c-1.915,0.246-3.495,0.99-4.737,2.232c-1.56,1.536-2.34,3.288-2.34,5.259c0,1.298,0.246,2.304,0.736,3.016
			c0.365,0.522,0.775,0.784,1.235,0.784c0.831,0,1.583-0.593,2.256-1.781c0.721-1.258,1.346-2.782,1.876-4.57
			C288.386,8.28,288.71,6.633,288.854,5.058z"/>
		<path stroke="#000000" stroke-width="0.2774" stroke-miterlimit="10" d="M309.742,5.082l5.449-0.095
			c0.594-0.024,0.998-0.111,1.212-0.261c0.063-0.047,0.134-0.072,0.214-0.072c0.11,0,0.252,0.056,0.427,0.167
			c0.341,0.222,0.665,0.487,0.974,0.795c0.134,0.143,0.201,0.277,0.201,0.404c0,0.119-0.051,0.229-0.154,0.332
			c-0.269,0.238-0.482,0.519-0.641,0.843c-1.488,3.182-3.052,5.71-4.689,7.586c-2.272,2.596-4.801,4.694-7.587,6.292
			c-0.071,0.047-0.143,0.072-0.214,0.072c-0.103,0-0.21-0.048-0.321-0.143c-0.309-0.285-0.763-0.519-1.365-0.701
			c1.829-0.989,3.416-2.046,4.761-3.17c1.062-0.895,2.157-1.987,3.29-3.277c1.796-2.082,3.319-4.56,4.57-7.433l-7.005,0.19
			c-1.893,2.358-3.494,4.092-4.808,5.2c-0.144,0.126-0.277,0.189-0.404,0.189c-0.103,0-0.222-0.047-0.355-0.142
			c-0.334-0.246-0.745-0.416-1.235-0.511c2.651-2.121,4.769-4.479,6.352-7.076c0.696-1.164,1.1-2.177,1.211-3.039
			c0.815,0.246,1.425,0.53,1.829,0.854c0.126,0.087,0.189,0.194,0.189,0.321c0,0.127-0.063,0.23-0.189,0.309
			c-0.246,0.158-0.491,0.436-0.736,0.832C310.169,4.421,309.844,4.932,309.742,5.082z"/>
		<path stroke="#000000" stroke-width="0.2774" stroke-miterlimit="10" d="M332.777,8.976c-0.522,0.815-1.235,1.722-2.137,2.719
			c-0.665,0.729-1.243,1.306-1.733,1.734c-1.639,1.4-3.428,2.655-5.367,3.764c-0.165,0.095-0.301,0.142-0.403,0.142
			c-0.104,0-0.206-0.055-0.308-0.166c-0.223-0.269-0.618-0.53-1.188-0.784c2.248-1.077,4.299-2.422,6.15-4.037
			c1.709-1.488,2.991-2.905,3.847-4.25h-5.235c-1.33,0-2.648,0.052-3.954,0.154c-0.031,0-0.052,0-0.06,0
			c-0.134,0-0.214-0.107-0.237-0.32c-0.048-0.309-0.087-0.795-0.118-1.461c0.989,0.08,2.437,0.119,4.345,0.119h6.162l-0.131-2.339
			c-0.079-1.314-0.198-2.251-0.355-2.814c0.966,0.032,1.634,0.095,2.006,0.19c0.15,0.04,0.227,0.131,0.227,0.273
			c0,0.087-0.028,0.182-0.084,0.285c-0.104,0.237-0.154,0.756-0.154,1.555c0,0.198,0.008,0.396,0.024,0.594l0.095,2.256h2.505
			c1.472,0,2.937-0.032,4.393-0.095c0.214,0,0.32,0.079,0.32,0.237v1.2c0,0.174-0.106,0.261-0.32,0.261
			c-2.169-0.063-3.625-0.095-4.369-0.095h-2.409l0.462,9.261c0.008,0.111,0.012,0.226,0.012,0.344c0,1.124-0.36,1.872-1.08,2.244
			c-0.918,0.42-1.908,0.629-2.968,0.629c-0.262,0-0.424-0.099-0.486-0.296c-0.223-0.515-0.563-0.962-1.021-1.342
			c0.149,0.009,0.285,0.013,0.403,0.013c1.132,0,2.038-0.099,2.719-0.297c0.31-0.086,0.511-0.221,0.605-0.404
			c0.104-0.182,0.154-0.487,0.154-0.914c0-0.103-0.004-0.218-0.012-0.344l-0.273-6.174L332.777,8.976z"/>
		<path stroke="#000000" stroke-width="0.2774" stroke-miterlimit="10" d="M350.505,6.15l-0.439-2.137
			c-0.214-1.052-0.506-1.919-0.879-2.6c0.365-0.047,0.749-0.071,1.153-0.071c0.34,0,0.636,0.016,0.889,0.047
			c0.271,0.032,0.404,0.143,0.404,0.332c0,0.032-0.003,0.068-0.011,0.107c-0.041,0.19-0.06,0.392-0.06,0.606
			c0,0.364,0.05,0.823,0.153,1.377l0.393,2.078l2.825-0.51c1.726-0.317,2.968-0.57,3.728-0.76c0.031,0,0.06,0,0.083,0
			c0.088,0,0.151,0.06,0.19,0.178c0.126,0.428,0.218,0.808,0.272,1.14c0,0.024,0,0.048,0,0.072c0,0.111-0.082,0.174-0.249,0.189
			c-2.208,0.38-3.438,0.59-3.692,0.629l-2.837,0.511l0.818,3.965l4.061-0.725c1.393-0.253,2.565-0.506,3.515-0.76
			c0.056-0.008,0.1-0.012,0.131-0.012c0.087,0,0.146,0.063,0.178,0.19c0.079,0.292,0.162,0.649,0.249,1.068c0,0.023,0,0.044,0,0.06
			c0,0.182-0.082,0.281-0.249,0.296c-0.942,0.143-2.125,0.349-3.549,0.618l-4.014,0.724l0.7,3.336
			c0.222,1.045,0.53,2.347,0.927,3.906c0.016,0.047,0.023,0.095,0.023,0.143c0,0.119-0.071,0.202-0.214,0.25
			c-0.324,0.119-0.713,0.209-1.163,0.273c-0.057,0.008-0.1,0.012-0.131,0.012c-0.143,0-0.222-0.087-0.237-0.261
			c-0.19-1.029-0.451-2.331-0.783-3.906l-0.726-3.431L348,13.76c-0.996,0.166-2.195,0.423-3.597,0.772
			c-0.071,0.023-0.131,0.035-0.178,0.035c-0.127,0-0.214-0.083-0.262-0.249c-0.157-0.444-0.304-0.922-0.438-1.437
			c1.076-0.095,2.454-0.289,4.131-0.582l4.013-0.677l-0.855-4.037l-2.837,0.463c-1.441,0.237-2.576,0.471-3.407,0.7
			c-0.055,0.016-0.099,0.024-0.13,0.024c-0.103,0-0.183-0.071-0.238-0.213c-0.134-0.364-0.281-0.851-0.438-1.461
			c0.989-0.055,2.311-0.217,3.964-0.486L350.505,6.15z"/>
		<path stroke="#000000" stroke-width="0.2774" stroke-miterlimit="10" d="M371.155,11.968l-1.994,0.534
			c-0.84,0.222-1.723,0.506-2.647,0.855c-0.151,0.056-0.254,0.083-0.309,0.083c-0.088,0-0.172-0.071-0.25-0.214
			c-0.254-0.538-0.439-1.001-0.559-1.389c0.871-0.111,1.983-0.328,3.337-0.653l2.065-0.534l-0.582-2.232
			c-0.245-0.942-0.546-1.706-0.901-2.292c0.601-0.071,1.163-0.107,1.686-0.107c0.119,0,0.209,0.004,0.273,0.012
			c0.229,0.016,0.344,0.103,0.344,0.261c0,0.047-0.008,0.095-0.024,0.143c-0.031,0.119-0.047,0.249-0.047,0.392
			c0,0.293,0.056,0.677,0.166,1.152l0.547,2.232l5.758-1.508c0.577-0.142,0.981-0.321,1.211-0.534
			c0.079-0.071,0.162-0.107,0.249-0.107c0.08,0,0.186,0.036,0.321,0.107c0.412,0.246,0.752,0.499,1.021,0.76
			c0.079,0.094,0.118,0.189,0.118,0.285c0,0.111-0.055,0.217-0.165,0.32c-0.206,0.174-0.353,0.36-0.44,0.558
			c-0.751,1.67-1.693,3.162-2.824,4.476c-0.127,0.143-0.242,0.214-0.345,0.214c-0.064,0-0.143-0.023-0.237-0.071
			c-0.293-0.174-0.685-0.305-1.176-0.392c1.393-1.362,2.406-2.826,3.04-4.394l-6.174,1.627l1.27,4.963
			c0.229,0.895,0.586,2.208,1.068,3.941c0.024,0.063,0.036,0.119,0.036,0.167c0,0.11-0.075,0.19-0.226,0.237
			c-0.213,0.103-0.531,0.202-0.949,0.297c-0.072,0.016-0.128,0.023-0.167,0.023c-0.118,0-0.201-0.091-0.249-0.273
			c-0.017-0.071-0.187-0.787-0.511-2.149c-0.167-0.712-0.313-1.318-0.439-1.816L371.155,11.968z"/>
		<path stroke="#000000" stroke-width="0.2774" stroke-miterlimit="10" d="M388.777,2.019c0.736,0.087,1.397,0.218,1.983,0.392
			c0.182,0.055,0.272,0.17,0.272,0.345c0,0.071-0.016,0.15-0.047,0.237c-0.167,0.301-0.25,1.152-0.25,2.553v4.108
			c0,1.085,0.024,2.157,0.072,3.217c0,0.253-0.119,0.38-0.357,0.38h-1.139c-0.206,0-0.309-0.095-0.309-0.285
			c0-0.031,0-0.055,0-0.071c0.031-1.448,0.047-2.56,0.047-3.336V5.544C389.05,4.112,388.959,2.937,388.777,2.019z M389.894,20.041
			c2.541-0.744,4.432-1.856,5.675-3.336c1.298-1.583,1.946-3.795,1.946-6.637V5.889c0-2.034-0.091-3.455-0.272-4.262
			c0.815,0.087,1.504,0.218,2.066,0.392c0.165,0.055,0.248,0.162,0.248,0.32c0,0.087-0.026,0.182-0.083,0.285
			c-0.157,0.325-0.236,1.389-0.236,3.194v4.108c0,3.246-0.705,5.767-2.114,7.563c-1.274,1.56-3.051,2.751-5.33,3.574
			c-0.111,0.04-0.206,0.059-0.285,0.059c-0.126,0-0.258-0.059-0.392-0.178C390.792,20.595,390.384,20.294,389.894,20.041z"/>
		<path stroke="#000000" stroke-width="0.2774" stroke-miterlimit="10" d="M406.007,3.087c1.156,0.111,2.825,0.166,5.011,0.166
			h10.115c0.918,0,1.522-0.047,1.816-0.143c0.158-0.063,0.28-0.094,0.368-0.094c0.103,0,0.226,0.055,0.367,0.166
			c0.364,0.316,0.662,0.633,0.891,0.949c0.088,0.104,0.132,0.21,0.132,0.321c0,0.15-0.084,0.277-0.25,0.38
			c-0.134,0.079-0.313,0.285-0.535,0.617c-1.146,1.726-2.693,3.321-4.642,4.785c-0.096,0.071-0.193,0.107-0.297,0.107
			c-0.126,0-0.237-0.044-0.332-0.13c-0.324-0.261-0.749-0.467-1.271-0.618c2.139-1.361,3.784-2.956,4.94-4.785h-11.113
			c-1.607,0-3.114,0.076-4.523,0.226c-0.032,0-0.056,0-0.071,0c-0.183,0-0.293-0.09-0.332-0.273
			C406.154,4.247,406.062,3.688,406.007,3.087z M407.788,19.649c2.454-1.282,4.132-2.873,5.035-4.773
			c0.807-1.686,1.21-3.681,1.21-5.984c0-0.688-0.074-1.357-0.226-2.006c0.823,0.055,1.465,0.166,1.925,0.332
			c0.22,0.087,0.332,0.218,0.332,0.392c0,0.087-0.032,0.194-0.095,0.321c-0.128,0.229-0.19,0.625-0.19,1.187
			c0,2.462-0.464,4.619-1.39,6.471c-0.934,1.868-2.454,3.471-4.559,4.809c-0.151,0.086-0.285,0.13-0.403,0.13
			c-0.127,0-0.237-0.044-0.333-0.13C408.77,20.096,408.334,19.848,407.788,19.649z"/>
	</g>
</g>
</svg>
